<?xml version="1.0" encoding="utf-8"?>
<!-- Generator: Adobe Illustrator 21.1.0, SVG Export Plug-In . SVG Version: 6.00 Build 0)  -->
<svg version="1.1" id="Capa_1" xmlns="http://www.w3.org/2000/svg" xmlns:xlink="http://www.w3.org/1999/xlink" x="0px" y="0px"
	 viewBox="0 0 72 72" style="enable-background:new 0 0 72 72;" xml:space="preserve">
<style type="text/css">
	.st0{fill:none;}
	.st1{fill:#FFFFFF;}
</style>
<rect x="43.8" y="21.2" class="st0" width="13.5" height="4"/>
<path class="st0" d="M50.9,27.6c-12.6,0-12.6,12.6-12.6,12.6s-0.9,12.5,12.6,12.5c0,0,11.2,0.6,11.2-8.7h-5.8c0,0,0.2,3.5-5.3,3.5
	c0,0-5.8,0.4-5.8-5.7h16.9C62.2,41.8,64.1,27.6,50.9,27.6z M56,37.4H45.3c0,0,0.7-5,5.8-5S56,37.4,56,37.4z"/>
<path class="st1" d="M51,32.4c-5,0-5.8,5-5.8,5H56C56,37.4,56.1,32.4,51,32.4z"/>
<path class="st1" d="M64.8,0h-27v72h27c4,0,7.2-3.2,7.2-7.2V7.2C72,3.2,68.8,0,64.8,0z M43.8,21.2h13.5v4H43.8
	C43.8,25.3,43.8,21.2,43.8,21.2z M62.2,41.8H45.3c0,6.1,5.8,5.7,5.8,5.7c5.4,0,5.3-3.5,5.3-3.5h5.8c0,9.3-11.2,8.7-11.2,8.7
	c-13.4,0-12.6-12.5-12.6-12.5s0-12.6,12.6-12.6C64.1,27.6,62.2,41.8,62.2,41.8z"/>
<g>
	<path class="st1" d="M7.2,0C3.2,0,0,3.2,0,7.2v57.6c0,4,3.2,7.2,7.2,7.2h31V0H7.2z M37,42.3c0,10-10.4,9.6-10.4,9.6h-17V19.3h17
		c5.1,0,9.3,2.8,9.3,8.7c0,5.8-5,6.2-5,6.2C37.5,34.2,37,42.3,37,42.3z"/>
	<path class="st1" d="M26.7,37.4h-9.5v8.7h9.1c1.4,0,3.9-0.5,3.9-4.2C30.1,37.4,26.7,37.4,26.7,37.4z"/>
	<path class="st1" d="M29,28.5c0-3.4-2.3-3.4-2.3-3.4h-9.5v7.3h8.9C27.6,32.4,29,31.9,29,28.5z"/>
</g>
</svg>
