<?xml version="1.0" encoding="utf-8"?>
<!-- Generator: Adobe Illustrator 21.1.0, SVG Export Plug-In . SVG Version: 6.00 Build 0)  -->
<svg version="1.1" id="Capa_1" xmlns="http://www.w3.org/2000/svg" xmlns:xlink="http://www.w3.org/1999/xlink" x="0px" y="0px"
	 viewBox="0 0 72 72" style="enable-background:new 0 0 72 72;" xml:space="preserve">
<style type="text/css">
	.st0{fill:none;}
	.st1{fill:#005CFF;}
	.st2{fill:#FFFFFF;}
</style>
<g>
	<rect x="29.2" y="21.2" class="st0" width="13.5" height="4"/>
	<path class="st1" d="M64.8,0H38.2h-0.4H7.2C3.2,0,0,3.2,0,7.2v57.6c0,4,3.2,7.2,7.2,7.2h30.6h0.4h26.6c4,0,7.2-3.2,7.2-7.2V7.2
		C72,3.2,68.8,0,64.8,0z"/>
	<g>
		<rect x="43.9" y="21.2" class="st2" width="13.6" height="4"/>
		<path class="st2" d="M51,27.7c-12.6,0-12.6,12.6-12.6,12.6S37.5,52.8,51,52.8c0,0,11.2,0.6,11.2-8.7h-5.8c0,0,0.2,3.5-5.3,3.5
			c0,0-5.8,0.4-5.8-5.7h17C62.4,41.9,64.3,27.7,51,27.7z M56.1,37.5H45.3c0,0,0.7-5.1,5.8-5.1S56.1,37.5,56.1,37.5z"/>
		<path class="st2" d="M30.9,34.3c0,0,5-0.4,5-6.3s-4.1-8.7-9.3-8.7c0,0,0,0,0,0v0H17h-0.3H9.5v32.9h7.3v0h9.8v0l0,0h0
			c0,0,10.4,0.3,10.4-9.7C37,42.5,37.5,34.3,30.9,34.3z M25.4,25.1h1.2h0c0,0,2.3,0,2.3,3.4s-1.4,3.9-2.9,3.9c0,0,0,0,0,0H17v-7.3
			H25.4z M26,46.3h-0.1c-0.1,0-0.3,0-0.3,0c0,0,0,0,0,0H17v-8.8h9.6v0l0,0c0,0,3.5,0,3.5,4.5C30.1,46,27.3,46.3,26,46.3z"/>
	</g>
</g>
</svg>
