<?xml version="1.0" encoding="utf-8"?>
<!-- Generator: Adobe Illustrator 21.1.0, SVG Export Plug-In . SVG Version: 6.00 Build 0)  -->
<svg version="1.1" id="Layer_1" xmlns="http://www.w3.org/2000/svg" xmlns:xlink="http://www.w3.org/1999/xlink" x="0px" y="0px"
	 viewBox="0 0 72 72" style="enable-background:new 0 0 72 72;" xml:space="preserve">
<style type="text/css">
	.st0{fill:#FFFFFF;}
</style>
<g>
	<path class="st0" d="M39.5,39.5c-11.1,3.9-15.2,11.4-15.8,12.5c3.4,2.6,7.7,4.2,12.3,4.2c2.8,0,5.4-0.5,7.8-1.5
		C43.5,52.7,42.3,46.7,39.5,39.5L39.5,39.5z"/>
	<path class="st0" d="M49.3,20.8c-3.6-3.1-8.2-5-13.3-5c-1.6,0-3.1,0.2-4.6,0.5c0.8,1.1,4.3,5.9,7.4,11.6
		C45.7,25.4,48.7,21.6,49.3,20.8z"/>
	<path class="st0" d="M37.4,36.1c0.2-0.1,0.5-0.1,0.7-0.2c-0.5-1.1-1-2.1-1.5-3.2c-8.9,2.7-17.6,2.9-20.2,2.9c-0.2,0-0.4,0-0.5,0
		c0,0.2,0,0.3,0,0.5c0,5.1,1.9,9.8,5.1,13.4C21.7,48,27.3,39.3,37.4,36.1z"/>
	<path class="st0" d="M34.7,29.3c-3.2-5.7-6.7-10.5-7.4-11.5c-5.5,2.7-9.7,7.8-11.1,13.9c0.1,0,0.1,0,0.2,0
		C18.3,31.7,26.1,31.6,34.7,29.3z"/>
	<path class="st0" d="M40.5,31.2c0.5,0.9,0.9,1.9,1.3,2.8c0.1,0.3,0.3,0.6,0.4,1c1.6-0.2,3.1-0.3,4.6-0.3c4.6,0,8.4,0.7,9.3,0.9
		c-0.1-4.6-1.7-8.9-4.5-12.3C51,24.3,47.6,28.3,40.5,31.2z"/>
	<path class="st0" d="M43.6,38.4c2.5,6.9,3.6,12.6,3.9,14.1c4.4-3.1,7.6-7.8,8.5-13.3c-0.8-0.3-4.1-1.2-8.3-1.2
		C46.4,38.2,45,38.2,43.6,38.4z"/>
	<path class="st0" d="M64.8,0H7.2C3.2,0,0,3.2,0,7.2v57.6c0,4,3.2,7.2,7.2,7.2h57.6c4,0,7.2-3.2,7.2-7.2V7.2C72,3.2,68.8,0,64.8,0z
		 M36,59.7c-13.1,0-23.7-10.6-23.7-23.7S22.9,12.3,36,12.3S59.7,22.9,59.7,36S49.1,59.7,36,59.7z"/>
</g>
</svg>
