<?xml version="1.0" encoding="utf-8"?>
<!-- Generator: Adobe Illustrator 21.1.0, SVG Export Plug-In . SVG Version: 6.00 Build 0)  -->
<svg version="1.1" id="Capa_1" xmlns="http://www.w3.org/2000/svg" xmlns:xlink="http://www.w3.org/1999/xlink" x="0px" y="0px"
	 viewBox="0 0 72 72" style="enable-background:new 0 0 72 72;" xml:space="preserve">
<style type="text/css">
	.st0{fill:#FFFFFF;}
</style>
<path class="st0" d="M64.8,0H7.2C3.2,0,0,3.2,0,7.2v57.6c0,4,3.2,7.2,7.2,7.2h57.6c4,0,7.2-3.2,7.2-7.2V7.2C72,3.2,68.8,0,64.8,0z
	 M21.8,59.5H10.9V27h10.9V59.5z M16.4,22.6L16.4,22.6c-3.7,0-6.1-2.5-6.1-5.6c0-3.2,2.4-5.6,6.2-5.6s6,2.4,6.1,5.6
	C22.5,20.1,20.2,22.6,16.4,22.6z M61.1,59.5H50.2V42.2c0-4.4-1.6-7.3-5.5-7.3c-3,0-4.8,2-5.6,4c-0.3,0.7-0.4,1.7-0.4,2.6v18.1H27.8
	c0,0,0.1-29.4,0-32.5h10.9v4.6c1.4-2.2,4-5.4,9.8-5.4c7.2,0,12.5,4.6,12.5,14.6L61.1,59.5L61.1,59.5z"/>
</svg>
