<?xml version="1.0" encoding="utf-8"?>
<!-- Generator: Adobe Illustrator 21.1.0, SVG Export Plug-In . SVG Version: 6.00 Build 0)  -->
<svg version="1.1" id="Layer_1" xmlns="http://www.w3.org/2000/svg" xmlns:xlink="http://www.w3.org/1999/xlink" x="0px" y="0px"
	 viewBox="0 0 72 72" style="enable-background:new 0 0 72 72;" xml:space="preserve">
<style type="text/css">
	.st0{fill:#FFFFFF;}
</style>
<g>
	<polygon class="st0" points="41.2,45.9 45.2,45.9 45.2,44.5 42.8,44.5 42.8,43 44.6,43 44.6,41.6 42.8,41.6 42.8,40.1 45.2,40.1 
		45.2,38.7 41.2,38.7 	"/>
	<path class="st0" d="M38.3,38.7c0,0-0.1,0.1-0.1,0.1c0,0-0.1,0.1-0.1,0.2l-1.5,3.6c-0.1,0.1-0.1,0.3-0.1,0.4c0,0.1,0,0.1-0.1,0.2
		c0-0.1,0-0.1-0.1-0.2c0-0.1-0.1-0.3-0.1-0.4L34.6,39c0-0.1-0.1-0.1-0.1-0.2c0,0-0.1-0.1-0.1-0.1c0,0-0.1,0-0.1,0h-1.3V46h1.4v-4.2
		c0-0.1,0-0.1,0-0.2l1.4,3.2c0.1,0.1,0.1,0.2,0.2,0.3c0.1,0.1,0.2,0.1,0.3,0.1h0.2c0.1,0,0.2,0,0.3-0.1c0.1-0.1,0.2-0.2,0.2-0.3
		l1.4-3.2c0,0.1,0,0.1,0,0.2V46h1.4v-7.3h-1.3C38.4,38.7,38.3,38.7,38.3,38.7z"/>
	<path class="st0" d="M30,43c0,0.3,0,0.5-0.1,0.6c0,0.2-0.1,0.4-0.2,0.5c-0.1,0.1-0.2,0.2-0.3,0.3c-0.3,0.1-0.6,0.1-0.9,0
		c-0.1-0.1-0.3-0.2-0.3-0.3c-0.1-0.1-0.2-0.3-0.2-0.5c0-0.2-0.1-0.4-0.1-0.6v-4.3h-1.5V43c0,0.4,0.1,0.9,0.2,1.2
		c0.1,0.4,0.3,0.7,0.5,1c0.2,0.3,0.5,0.5,0.8,0.6c0.3,0.1,0.7,0.2,1.1,0.2c0.4,0,0.8-0.1,1.1-0.2c0.3-0.1,0.6-0.4,0.8-0.6
		c0.2-0.3,0.4-0.6,0.5-1c0.1-0.4,0.2-0.8,0.2-1.2v-4.3H30L30,43L30,43z"/>
	<polygon class="st0" points="39,35.8 35.7,35.8 35.7,33.9 38.2,33.9 38.2,32.6 35.7,32.6 35.7,30.7 39,30.7 39,29.3 33.9,29.3 
		33.9,37.2 39,37.2 	"/>
	<path class="st0" d="M30.8,34.1c-0.1-0.1-0.2-0.2-0.4-0.2c0.3-0.1,0.5-0.2,0.7-0.4c0.2-0.1,0.4-0.3,0.5-0.5
		c0.1-0.2,0.3-0.4,0.3-0.6C32,32.2,32,32,32,31.7c0-0.3-0.1-0.6-0.2-0.9c-0.1-0.3-0.3-0.5-0.5-0.8s-0.6-0.4-1-0.5
		c-0.4-0.1-0.9-0.2-1.4-0.2h-2.6v7.8h1.8v-2.9h0.5c0.1,0,0.3,0,0.3,0.1c0.1,0,0.1,0.1,0.2,0.2l1.3,2.3c0.1,0.2,0.4,0.4,0.6,0.4h1.7
		l-1.7-2.7C31,34.3,30.9,34.2,30.8,34.1z M30.2,32.3c0,0.1-0.1,0.3-0.3,0.4c-0.1,0.1-0.3,0.2-0.4,0.3C29.3,33,29.1,33,28.8,33h-0.7
		v-2.3h0.7c0.5,0,0.8,0.1,1,0.3c0.2,0.2,0.3,0.5,0.3,0.8C30.2,32,30.2,32.1,30.2,32.3z"/>
	<path class="st0" d="M44.9,33.3c-0.2-0.1-0.4-0.3-0.6-0.4c-0.2-0.1-0.4-0.2-0.6-0.3c-0.2-0.1-0.4-0.1-0.6-0.2
		c-0.2-0.1-0.4-0.1-0.6-0.2S42.1,32,42,31.9c-0.1-0.1-0.1-0.3-0.1-0.4c0-0.3,0.1-0.4,0.3-0.6c0.2-0.1,0.4-0.2,0.8-0.2
		c0.2,0,0.4,0,0.5,0.1c0.1,0,0.3,0.1,0.4,0.2c0.1,0.1,0.2,0.1,0.3,0.2c0.1,0,0.2,0.1,0.3,0.1c0.1,0,0.2,0,0.2-0.1
		c0.1,0,0.1-0.1,0.2-0.2l0.5-0.9c-0.1-0.1-0.3-0.3-0.5-0.4s-0.4-0.2-0.6-0.3s-0.4-0.1-0.6-0.2c-0.2,0-0.5-0.1-0.7-0.1
		c-0.4,0-0.8,0.1-1.2,0.2s-0.6,0.3-0.9,0.5c-0.2,0.2-0.4,0.5-0.5,0.8c-0.1,0.3-0.2,0.6-0.2,0.9c0,0.4,0,0.7,0.1,0.9
		c0.1,0.3,0.2,0.5,0.4,0.6c0.2,0.2,0.4,0.3,0.6,0.4c0.2,0.1,0.4,0.2,0.6,0.3c0.2,0.1,0.4,0.1,0.6,0.2c0.2,0.1,0.4,0.1,0.6,0.2
		c0.2,0.1,0.3,0.2,0.4,0.3c0.1,0.1,0.1,0.3,0.1,0.4c0,0.3-0.1,0.5-0.3,0.7s-0.4,0.2-0.8,0.2c-0.3,0-0.5,0-0.6-0.1
		c-0.2-0.1-0.3-0.1-0.5-0.2s-0.3-0.1-0.4-0.2c-0.1-0.1-0.2-0.1-0.3-0.1c-0.1,0-0.1,0-0.2,0.1c-0.1,0-0.1,0.1-0.2,0.1l-0.5,0.9
		c0.1,0.1,0.3,0.3,0.5,0.4c0.2,0.1,0.4,0.3,0.7,0.3c0.3,0.1,0.5,0.2,0.7,0.2s0.5,0.1,0.8,0.1c0.4,0,0.8-0.1,1.2-0.2s0.6-0.3,0.9-0.5
		c0.3-0.3,0.4-0.5,0.5-0.8c0.1-0.3,0.2-0.6,0.2-1c0-0.3,0-0.6-0.1-0.8C45.1,33.6,45,33.4,44.9,33.3z"/>
	<path class="st0" d="M64.8,0H7.2C3.2,0,0,3.2,0,7.2v57.6c0,4,3.2,7.2,7.2,7.2h57.6c4,0,7.2-3.2,7.2-7.2V7.2C72,3.2,68.8,0,64.8,0z
		 M48.9,57.9H23.1c-2.7,0-4.8-2.2-4.8-4.8V17.5c0-2.7,2.2-4.8,4.8-4.8h20.3v9.6h10.4V53l0,0C53.7,55.7,51.6,57.9,48.9,57.9z
		 M45.9,19.8v-7.4l8.1,7.4H45.9z"/>
</g>
</svg>
